<?xml version="1.0" encoding="utf-8"?>
<!-- Generator: Adobe Illustrator 25.3.1, SVG Export Plug-In . SVG Version: 6.00 Build 0)  -->
<svg version="1.1" id="Layer_1" xmlns="http://www.w3.org/2000/svg" xmlns:xlink="http://www.w3.org/1999/xlink" x="0px" y="0px"
	 viewBox="0 0 800 800" style="enable-background:new 0 0 800 800;" xml:space="preserve">
<style type="text/css">
	.st0{fill:#1A532E;stroke:#FFFFFF;stroke-width:9;stroke-miterlimit:10;}
	.st1{fill:#1A3E2E;stroke:#FFFFFF;stroke-width:9;stroke-miterlimit:10;}
</style>
<path class="st0" d="M248.5,103c-108,55.2-181.9,167.5-181.9,297c0,53.3,12.5,103.7,34.8,148.4c5.9,11.9,7.9,25.5,4.5,38.3L86,660.9
	c-8.6,32.2,20.8,61.7,53.1,53.1l74.2-19.9c12.8-3.4,26.4-1.5,38.3,4.5c44.7,22.3,95.1,34.8,148.4,34.8
	c162.8,0,298.4-116.8,327.5-271.1c-55,64-136.5,104.5-227.5,104.5c-165.7,0-300-134.3-300-300C200,206.3,217.8,150.1,248.5,103z"/>
<path class="st1" d="M727.5,462.2c3.8-20.1,5.8-40.9,5.8-62.2c0-184.1-149.2-333.3-333.3-333.3c-51.8,0-100.8,11.8-144.5,32.9
	c-2.3,1.1-4.6,2.3-6.9,3.4C217.8,150.1,200,206.3,200,266.7c0,165.7,134.3,300,300,300C591,566.7,672.5,526.2,727.5,462.2z"/>
</svg>
